<?xml version="1.0" encoding="UTF-8"?>
<!-- Generated by Pixelmator Pro 3.6.9 -->
<svg width="8000" height="8000" viewBox="0 0 8000 8000" xmlns="http://www.w3.org/2000/svg">
    <g id="-1">
        <g id="g1">
            <path id="path1" fill="#002366" stroke="none" d="M 8015.036621 8006.746582 L 4.165488 8006.746582 L 4.165488 -4.124512 L 8015.036621 -4.124512 L 8015.036621 8006.746582 Z"/>
            <g id="g2">
                <g id="g3">
                    <path id="path2" fill="#000000" stroke="none" d="M 2115.0354 1217.314941 C 2143.600098 1405.101563 2200.136475 1680.512207 2323.476807 1994.55957 C 2329.730469 2010.48291 2336.268066 2026.736328 2343.909668 2044.682129 C 2502.182373 2416.375 2670.81543 2671.807129 2716.552246 2741.835938 C 2969.068604 3128.461914 3125.566162 3644.980469 3154.615967 3740.860352 C 3243.333984 4033.669922 3338.104492 4513.801758 3242.998535 5165.074707 C 3238.179199 4986.617188 3208.494873 4050.377441 3014.599121 3726.691406 C 2994.883301 3693.782227 2972.087158 3658.076172 2972.071777 3658.055664 C 2908.136475 3562.599121 2833.984619 3485.748535 2599.924805 3186.74707 C 2541.437988 3112.032715 2285.712158 2785.374512 2172.289063 2573.378418 C 2063.695313 2370.411621 1913.946899 1951.836426 2115.0354 1217.314941 Z"/>
                    <path id="path3" fill="#000000" stroke="none" d="M 6405.636719 773.305176 C 6110.510254 1434.763672 5761.768066 1880.778809 5494.132813 2168.17041 C 4642.54541 3082.614746 3836.643311 3223.746094 3436.349609 4115.466797 C 3255.218994 4518.964844 3233.769531 4905.415039 3243.000488 5165.077637 C 3429.610596 4686.15332 3691.760498 4411.950195 3851.957764 4271.954102 C 4008.021484 4135.569336 4169.116699 4037.584473 4268.02002 3977.431152 C 4573.491699 3791.63623 4720.552246 3762.710449 4997.298828 3617.47168 C 5087.580566 3570.094238 5379.543457 3411.718262 5632.240723 3190.155762 C 6262.198242 2637.796875 6416.19873 1895.721191 6433.256836 1809.098145 C 6519.580566 1370.791992 6460.222168 997.850586 6405.636719 773.305176 Z"/>
                    <path id="path4" fill="#000000" stroke="none" d="M 3861.21875 2930.079102 C 3858.304932 2979.67627 3839.532227 3024.470215 3645.474854 3248.530762 C 3563.606201 3343.053711 3493.649658 3419.713379 3444.310547 3472.826172 C 3421.148193 3401.428223 3390.982666 3305.873535 3357.555176 3192.397949 C 3277.123291 2919.354004 3275.779297 2875.099609 3291.338623 2828.37793 C 3330.066162 2712.100098 3472.030029 2584.986816 3629.620605 2616.348145 C 3782.061035 2646.682129 3868.322754 2809.226563 3861.21875 2930.079102 Z"/>
                </g>
                <g id="g4">
                    <path id="path5" fill="#ffffff" stroke="none" d="M 2115.0354 1217.314941 C 2143.600098 1405.101563 2200.136475 1680.512207 2323.476807 1994.55957 C 2329.730469 2010.48291 2336.268066 2026.736328 2343.909668 2044.682129 C 2502.182373 2416.375 2670.81543 2671.807129 2716.552246 2741.835938 C 2969.068604 3128.461914 3125.566162 3644.980469 3154.615967 3740.860352 C 3243.333984 4033.669922 3338.104492 4513.801758 3242.998535 5165.074707 C 3238.179199 4986.617188 3208.494873 4050.377441 3014.599121 3726.691406 C 2994.883301 3693.782227 2972.087158 3658.076172 2972.071777 3658.055664 C 2908.136475 3562.599121 2833.984619 3485.748535 2599.924805 3186.74707 C 2541.437988 3112.032715 2285.712158 2785.374512 2172.289063 2573.378418 C 2063.695313 2370.411621 1913.946899 1951.836426 2115.0354 1217.314941 Z"/>
                    <path id="path6" fill="#ffffff" stroke="none" d="M 6405.636719 773.305176 C 6110.510254 1434.763672 5761.768066 1880.778809 5494.132813 2168.17041 C 4642.54541 3082.614746 3836.643311 3223.746094 3436.349609 4115.466797 C 3255.218994 4518.964844 3233.769531 4905.415039 3243.000488 5165.077637 C 3429.610596 4686.15332 3691.760498 4411.950195 3851.957764 4271.954102 C 4008.021484 4135.569336 4169.116699 4037.584473 4268.02002 3977.431152 C 4573.491699 3791.63623 4720.552246 3762.710449 4997.298828 3617.47168 C 5087.580566 3570.094238 5379.543457 3411.718262 5632.240723 3190.155762 C 6262.198242 2637.796875 6416.19873 1895.721191 6433.256836 1809.098145 C 6519.580566 1370.791992 6460.222168 997.850586 6405.636719 773.305176 Z"/>
                    <path id="path7" fill="#ffffff" stroke="none" d="M 3861.21875 2930.079102 C 3858.304932 2979.67627 3839.532227 3024.470215 3645.474854 3248.530762 C 3563.606201 3343.053711 3493.649658 3419.713379 3444.310547 3472.826172 C 3421.148193 3401.428223 3390.982666 3305.873535 3357.555176 3192.397949 C 3277.123291 2919.354004 3275.779297 2875.099609 3291.338623 2828.37793 C 3330.066162 2712.100098 3472.030029 2584.986816 3629.620605 2616.348145 C 3782.061035 2646.682129 3868.322754 2809.226563 3861.21875 2930.079102 Z"/>
                </g>
            </g>
            <g id="g5">
                <path id="path8" fill="#000000" stroke="none" d="M 2115.0354 1217.314941 C 2143.600098 1405.101563 2200.136475 1680.512207 2323.476807 1994.55957 C 2329.730469 2010.48291 2336.268066 2026.736328 2343.909668 2044.682129 C 2502.182373 2416.375 2670.81543 2671.807129 2716.552246 2741.835938 C 2969.068604 3128.461914 3125.566162 3644.980469 3154.615967 3740.860352 C 3243.333984 4033.669922 3338.104492 4513.801758 3242.998535 5165.074707 C 3238.179199 4986.617188 3208.494873 4050.377441 3014.599121 3726.691406 C 2994.883301 3693.782227 2972.087158 3658.076172 2972.071777 3658.055664 C 2908.136475 3562.599121 2833.984619 3485.748535 2599.924805 3186.74707 C 2541.437988 3112.032715 2285.712158 2785.374512 2172.289063 2573.378418 C 2063.695313 2370.411621 1913.946899 1951.836426 2115.0354 1217.314941 Z"/>
                <path id="path9" fill="#000000" stroke="none" d="M 6405.636719 773.305176 C 6110.510254 1434.763672 5761.768066 1880.778809 5494.132813 2168.17041 C 4642.54541 3082.614746 3836.643311 3223.746094 3436.349609 4115.466797 C 3255.218994 4518.964844 3233.769531 4905.415039 3243.000488 5165.077637 C 3429.610596 4686.15332 3691.760498 4411.950195 3851.957764 4271.954102 C 4008.021484 4135.569336 4169.116699 4037.584473 4268.02002 3977.431152 C 4573.491699 3791.63623 4720.552246 3762.710449 4997.298828 3617.47168 C 5087.580566 3570.094238 5379.543457 3411.718262 5632.240723 3190.155762 C 6262.198242 2637.796875 6416.19873 1895.721191 6433.256836 1809.098145 C 6519.580566 1370.791992 6460.222168 997.850586 6405.636719 773.305176 Z"/>
                <path id="path10" fill="#000000" stroke="none" d="M 3861.21875 2930.079102 C 3858.304932 2979.67627 3839.532227 3024.470215 3645.474854 3248.530762 C 3563.606201 3343.053711 3493.649658 3419.713379 3444.310547 3472.826172 C 3421.148193 3401.428223 3390.982666 3305.873535 3357.555176 3192.397949 C 3277.123291 2919.354004 3275.779297 2875.099609 3291.338623 2828.37793 C 3330.066162 2712.100098 3472.030029 2584.986816 3629.620605 2616.348145 C 3782.061035 2646.682129 3868.322754 2809.226563 3861.21875 2930.079102 Z"/>
            </g>
            <text id="KARANA" xml:space="preserve" x="1478" y="6392" font-family="Helvetica" font-size="965.416917" fill="#ffffff" letter-spacing="22.938306">KARANA</text>
        </g>
        <g id="g6">
            <path id="path11" fill="#ffffff" stroke="#d1d1d1" stroke-width="1.041667" d="M 8045.774902 8045.833496 L -33.333332 8045.833496 L -33.333332 -33.274902 L 8045.774902 -33.274902 L 8045.774902 8045.833496 Z"/>
            <g id="g7">
                <g id="g8">
                    <path id="path12" fill="#000000" stroke="none" d="M 2040.881714 1212.603516 C 2069.534668 1400.96875 2126.244873 1677.228516 2249.965576 1992.244141 C 2256.238525 2008.216797 2262.796387 2024.52002 2270.461426 2042.521484 C 2429.221924 2415.359863 2598.375 2671.57959 2644.252441 2741.824219 C 2897.547607 3129.641602 3054.527588 3647.75293 3083.666748 3743.928223 C 3172.658203 4037.640625 3267.720947 4519.252441 3172.321777 5172.533203 C 3167.487793 4993.525391 3137.711914 4054.399658 2943.218262 3729.71582 C 2923.441895 3696.705078 2900.575439 3660.88916 2900.560059 3660.868164 C 2836.42749 3565.117188 2762.047119 3488.029785 2527.265625 3188.106934 C 2468.598633 3113.162109 2212.084473 2785.49707 2098.311523 2572.847168 C 1989.383179 2369.254883 1839.173096 1949.38916 2040.881714 1212.603516 Z"/>
                    <path id="path13" fill="#000000" stroke="none" d="M 6344.709473 767.225098 C 6048.672852 1430.722168 5698.855957 1878.112305 5430.395996 2166.390137 C 4576.183594 3083.65332 3767.796631 3225.220215 3366.269043 4119.689453 C 3184.580078 4524.431641 3163.064453 4912.072754 3172.323975 5172.536133 C 3359.509277 4692.135742 3622.467285 4417.086914 3783.158447 4276.65918 C 3939.703369 4139.854492 4101.294922 4041.567139 4200.50293 3981.228271 C 4506.916992 3794.86084 4654.430176 3765.845703 4932.030273 3620.15918 C 5022.590332 3572.635742 5315.453613 3413.771973 5568.929688 3191.525879 C 6200.829102 2637.464355 6355.303711 1893.101074 6372.415039 1806.210938 C 6459.005371 1366.553711 6399.463379 992.462402 6344.709473 767.225098 Z"/>
                    <path id="path14" fill="#000000" stroke="none" d="M 3792.447998 2930.647949 C 3789.525146 2980.397461 3770.69458 3025.330078 3576.038818 3250.081055 C 3493.917969 3344.895508 3423.74585 3421.791504 3374.254395 3475.067871 C 3351.020752 3403.449707 3320.762207 3307.600586 3287.231689 3193.775391 C 3206.551514 2919.889648 3205.203857 2875.498535 3220.811035 2828.632813 C 3259.657959 2711.996582 3402.05957 2584.491699 3560.135742 2615.949707 C 3713.046387 2646.376953 3799.57373 2809.422363 3792.447998 2930.647949 Z"/>
                </g>
                <g id="g9">
                    <path id="path15" fill="#002366" stroke="none" d="M 2040.881714 1212.603516 C 2069.534668 1400.96875 2126.244873 1677.228516 2249.965576 1992.244141 C 2256.238525 2008.216797 2262.796387 2024.52002 2270.461426 2042.521484 C 2429.221924 2415.359863 2598.375 2671.57959 2644.252441 2741.824219 C 2897.547607 3129.641602 3054.527588 3647.75293 3083.666748 3743.928223 C 3172.658203 4037.640625 3267.720947 4519.252441 3172.321777 5172.533203 C 3167.487793 4993.525391 3137.711914 4054.399658 2943.218262 3729.71582 C 2923.441895 3696.705078 2900.575439 3660.88916 2900.560059 3660.868164 C 2836.42749 3565.117188 2762.047119 3488.029785 2527.265625 3188.106934 C 2468.598633 3113.162109 2212.084473 2785.49707 2098.311523 2572.847168 C 1989.383179 2369.254883 1839.173096 1949.38916 2040.881714 1212.603516 Z"/>
                    <path id="path16" fill="#002366" stroke="none" d="M 6344.709473 767.225098 C 6048.672852 1430.722168 5698.855957 1878.112305 5430.395996 2166.390137 C 4576.183594 3083.65332 3767.796631 3225.220215 3366.269043 4119.689453 C 3184.580078 4524.431641 3163.064453 4912.072754 3172.323975 5172.536133 C 3359.509277 4692.135742 3622.467285 4417.086914 3783.158447 4276.65918 C 3939.703369 4139.854492 4101.294922 4041.567139 4200.50293 3981.228271 C 4506.916992 3794.86084 4654.430176 3765.845703 4932.030273 3620.15918 C 5022.590332 3572.635742 5315.453613 3413.771973 5568.929688 3191.525879 C 6200.829102 2637.464355 6355.303711 1893.101074 6372.415039 1806.210938 C 6459.005371 1366.553711 6399.463379 992.462402 6344.709473 767.225098 Z"/>
                    <path id="path17" fill="#002366" stroke="none" d="M 3792.447998 2930.647949 C 3789.525146 2980.397461 3770.69458 3025.330078 3576.038818 3250.081055 C 3493.917969 3344.895508 3423.74585 3421.791504 3374.254395 3475.067871 C 3351.020752 3403.449707 3320.762207 3307.600586 3287.231689 3193.775391 C 3206.551514 2919.889648 3205.203857 2875.498535 3220.811035 2828.632813 C 3259.657959 2711.996582 3402.05957 2584.491699 3560.135742 2615.949707 C 3713.046387 2646.376953 3799.57373 2809.422363 3792.447998 2930.647949 Z"/>
                </g>
            </g>
            <g id="g10">
                <path id="path18" fill="#000000" stroke="none" d="M 2040.881714 1212.603516 C 2069.534668 1400.96875 2126.244873 1677.228516 2249.965576 1992.244141 C 2256.238525 2008.216797 2262.796387 2024.52002 2270.461426 2042.521484 C 2429.221924 2415.359863 2598.375 2671.57959 2644.252441 2741.824219 C 2897.547607 3129.641602 3054.527588 3647.75293 3083.666748 3743.928223 C 3172.658203 4037.640625 3267.720947 4519.252441 3172.321777 5172.533203 C 3167.487793 4993.525391 3137.711914 4054.399658 2943.218262 3729.71582 C 2923.441895 3696.705078 2900.575439 3660.88916 2900.560059 3660.868164 C 2836.42749 3565.117188 2762.047119 3488.029785 2527.265625 3188.106934 C 2468.598633 3113.162109 2212.084473 2785.49707 2098.311523 2572.847168 C 1989.383179 2369.254883 1839.173096 1949.38916 2040.881714 1212.603516 Z"/>
                <path id="path19" fill="#000000" stroke="none" d="M 6344.709473 767.225098 C 6048.672852 1430.722168 5698.855957 1878.112305 5430.395996 2166.390137 C 4576.183594 3083.65332 3767.796631 3225.220215 3366.269043 4119.689453 C 3184.580078 4524.431641 3163.064453 4912.072754 3172.323975 5172.536133 C 3359.509277 4692.135742 3622.467285 4417.086914 3783.158447 4276.65918 C 3939.703369 4139.854492 4101.294922 4041.567139 4200.50293 3981.228271 C 4506.916992 3794.86084 4654.430176 3765.845703 4932.030273 3620.15918 C 5022.590332 3572.635742 5315.453613 3413.771973 5568.929688 3191.525879 C 6200.829102 2637.464355 6355.303711 1893.101074 6372.415039 1806.210938 C 6459.005371 1366.553711 6399.463379 992.462402 6344.709473 767.225098 Z"/>
                <path id="path20" fill="#000000" stroke="none" d="M 3792.447998 2930.647949 C 3789.525146 2980.397461 3770.69458 3025.330078 3576.038818 3250.081055 C 3493.917969 3344.895508 3423.74585 3421.791504 3374.254395 3475.067871 C 3351.020752 3403.449707 3320.762207 3307.600586 3287.231689 3193.775391 C 3206.551514 2919.889648 3205.203857 2875.498535 3220.811035 2828.632813 C 3259.657959 2711.996582 3402.05957 2584.491699 3560.135742 2615.949707 C 3713.046387 2646.376953 3799.57373 2809.422363 3792.447998 2930.647949 Z"/>
            </g>
            <text id="text1" xml:space="preserve" x="1593" y="6403" font-family="Helvetica" font-size="968.393" fill="#002266" letter-spacing="23.009018">KARANA</text>
        </g>
    </g>
</svg>
